<?xml version="1.0" encoding="utf-8"?>
<!-- Generator: Adobe Illustrator 25.4.0, SVG Export Plug-In . SVG Version: 6.00 Build 0)  -->
<svg version="1.1" id="Ebene_1" xmlns="http://www.w3.org/2000/svg" xmlns:xlink="http://www.w3.org/1999/xlink" x="0px" y="0px"
	 viewBox="0 0 489.8 143.6" style="enable-background:new 0 0 489.8 143.6;" xml:space="preserve">
<style type="text/css">
	.st0{fill:#4B5C66;}
	.st1{display:none;}
	.st2{display:inline;fill:#FFFFFF;}
	.st3{display:inline;fill:#4B5C66;}
	.st4{fill:#FFFFFF;}
</style>
<rect y="0.4" class="st0" width="99.3" height="136.6"/>
<rect x="147.1" y="0.4" class="st0" width="3.3" height="136.6"/>
<g class="st1">
	<path class="st2" d="M20.2,419.3L20.2,419.3c-5.1,0-9.3-4.2-9.3-9.3v0c0-5.1,4.2-9.3,9.3-9.3h0c5.1,0,9.3,4.2,9.3,9.3v0
		C29.5,415.2,25.3,419.3,20.2,419.3z"/>
	<path class="st2" d="M49.7,419.3L49.7,419.3c-5.1,0-9.3-4.2-9.3-9.3v0c0-5.1,4.2-9.3,9.3-9.3h0c5.1,0,9.3,4.2,9.3,9.3v0
		C59,415.2,54.8,419.3,49.7,419.3z"/>
	<path class="st2" d="M79.2,419.3L79.2,419.3c-5.1,0-9.3-4.2-9.3-9.3v0c0-5.1,4.2-9.3,9.3-9.3h0c5.1,0,9.3,4.2,9.3,9.3v0
		C88.5,415.2,84.3,419.3,79.2,419.3z"/>
	<path class="st2" d="M20.2,467.4L20.2,467.4c-5.1,0-9.3-4.2-9.3-9.3v-18.6c0-5.1,4.2-9.3,9.3-9.3h0c5.1,0,9.3,4.2,9.3,9.3v18.6
		C29.5,463.3,25.3,467.4,20.2,467.4z"/>
	<path class="st2" d="M49.7,467.4L49.7,467.4c-5.1,0-9.3-4.2-9.3-9.3v-18.6c0-5.1,4.2-9.3,9.3-9.3h0c5.1,0,9.3,4.2,9.3,9.3v18.6
		C59,463.3,54.8,467.4,49.7,467.4z"/>
	<path class="st2" d="M79.2,389.9L79.2,389.9c-5.1,0-9.3-4.2-9.3-9.3V362c0-5.1,4.2-9.3,9.3-9.3h0c5.1,0,9.3,4.2,9.3,9.3v18.6
		C88.5,385.7,84.3,389.9,79.2,389.9z"/>
	<rect x="18.4" y="407" class="st2" width="61.5" height="6.2"/>
	<rect x="46.6" y="417.2" class="st2" width="6.2" height="15.6"/>
	<circle class="st3" cx="20.2" cy="410.1" r="4.6"/>
	<circle class="st3" cx="79.2" cy="410.1" r="4.6"/>
</g>
<g>
	<path class="st0" d="M238.7,60l-3.5-10.5H214L210.4,60h-12.1L220,0.5h9.1L250.8,60H238.7z M224.8,18l-7.5,21.6h14.8L224.8,18z"/>
	<path class="st0" d="M275,10.9V60h-11.6V10.9h-15.5V0.5h42.7v10.4H275z"/>
	<path class="st0" d="M300,60V0.5h11.6v49.1h27V60H300z"/>
	<path class="st0" d="M381.8,60l-3.5-10.5h-21.1L353.6,60h-12.1l21.6-59.5h9.1L393.9,60H381.8z M368,18l-7.5,21.6h14.8L368,18z"/>
	<path class="st0" d="M417.6,60.5c-9,0-15.9-1.9-21.7-7.9l7.5-7.5c3.8,3.8,8.9,5,14.3,5c6.9,0,10.6-2.7,10.6-7.4
		c0-2-0.6-3.7-1.8-4.9c-1.2-1.1-2.3-1.6-5.3-2l-7.1-1.1c-5.3-0.8-8.9-2.3-11.5-4.9c-2.8-2.8-4.3-6.7-4.3-11.7c0-10.6,7.8-18,20.7-18
		c8.2,0,14.1,2,19.2,6.9l-7.3,7.3c-3.7-3.6-8.3-4.1-12.2-4.1c-6.2,0-9.1,3.4-9.1,7.5c0,1.6,0.4,3.1,1.7,4.3c1.2,1.1,2.9,1.9,5.4,2.3
		l7.1,1.1c5.4,0.8,8.8,2.2,11.4,4.7c3.2,2.9,4.6,7.2,4.6,12.5C439.7,53.9,430.2,60.5,417.6,60.5z"/>
</g>
<g>
	<path class="st0" d="M211.1,99.4c-1.4,1.5-3.2,2.2-5.5,2.2h-7.2v-21h7.2c2.4,0,4.1,0.7,5.5,2.2c1.9,2,1.9,5.1,1.9,8.3
		S212.9,97.4,211.1,99.4z M209.3,84.2c-1.1-1.2-2.5-1.5-4.1-1.5h-4.6v17h4.6c1.6,0,3.1-0.4,4.1-1.5c1.4-1.4,1.4-4,1.4-7
		S210.6,85.6,209.3,84.2z"/>
	<path class="st0" d="M217.7,83v-2.4h2.4V83H217.7z M217.8,101.7V87.1h2.1v14.5H217.8z"/>
	<path class="st0" d="M226.6,95c0,3.2,1.5,5,4.3,5c1.7,0,2.7-0.5,3.8-1.7l1.4,1.3c-1.5,1.5-2.9,2.2-5.3,2.2c-3.9,0-6.3-2.3-6.3-7.4
		c0-4.7,2.3-7.4,6-7.4c3.8,0,6,2.7,6,7V95H226.6z M233.8,91c-0.6-1.3-1.8-2.2-3.4-2.2c-1.6,0-2.8,0.9-3.4,2.2
		c-0.4,0.8-0.4,1.2-0.4,2.4h7.7C234.2,92.2,234.2,91.7,233.8,91z"/>
	<path class="st0" d="M248.1,83v-2.4h2.4V83H248.1z M248.2,101.7V87.1h2.1v14.5H248.2z"/>
	<path class="st0" d="M264.9,101.7v-8.9c0-2.6-1.4-3.9-3.6-3.9s-3.6,1.3-3.6,3.9v8.9h-2.1V87.1h2.1v1.6c1-1.2,2.4-1.8,4.1-1.8
		c1.6,0,2.8,0.5,3.7,1.4c1,1,1.5,2.4,1.5,4v9.3H264.9z"/>
	<path class="st0" d="M276.3,101.7c-2.5,0-3.7-1.7-3.7-3.9v-9h-1.8v-1.6h1.8v-4.5h2.1v4.5h3.1v1.6h-3.1v8.9c0,1.3,0.6,2.1,2,2.1h1.1
		v1.8H276.3z"/>
	<path class="st0" d="M283.2,95c0,3.2,1.5,5,4.3,5c1.7,0,2.7-0.5,3.8-1.7l1.4,1.3c-1.5,1.5-2.9,2.2-5.3,2.2c-3.9,0-6.3-2.3-6.3-7.4
		c0-4.7,2.3-7.4,6-7.4c3.8,0,6,2.7,6,7V95H283.2z M290.4,91c-0.6-1.3-1.8-2.2-3.4-2.2s-2.8,0.9-3.4,2.2c-0.4,0.8-0.4,1.2-0.4,2.4
		h7.7C290.8,92.2,290.8,91.7,290.4,91z"/>
	<path class="st0" d="M305.6,89.9c-0.8-0.8-1.4-1.1-2.5-1.1c-2.1,0-3.5,1.7-3.5,3.9v8.9h-2.1V87.1h2.1v1.8c0.8-1.2,2.4-1.9,4.1-1.9
		c1.4,0,2.4,0.3,3.5,1.4L305.6,89.9z"/>
	<path class="st0" d="M317.7,101.7v-1.7c-1.2,1.5-2.5,1.9-4.1,1.9c-1.5,0-2.8-0.5-3.5-1.3c-1.4-1.5-1.8-3.8-1.8-6.2s0.3-4.7,1.8-6.2
		c0.8-0.8,2-1.3,3.5-1.3c1.6,0,2.9,0.4,4.1,1.9v-8.2h2.1v21H317.7z M314.1,88.9c-3.2,0-3.7,2.7-3.7,5.5c0,2.8,0.5,5.5,3.7,5.5
		c3.2,0,3.6-2.7,3.6-5.5C317.7,91.6,317.2,88.9,314.1,88.9z"/>
	<path class="st0" d="M325,83v-2.4h2.4V83H325z M325.1,101.7V87.1h2.1v14.5H325.1z"/>
	<path class="st0" d="M337.1,101.8c-2.5,0-4.4-0.6-6-2.1l1.4-1.4c1.1,1.2,2.7,1.7,4.5,1.7c2.4,0,3.9-0.9,3.9-2.6
		c0-1.3-0.7-2-2.4-2.1l-2.4-0.2c-2.8-0.2-4.3-1.5-4.3-3.9c0-2.7,2.2-4.2,5.3-4.2c2.1,0,3.9,0.5,5.2,1.6l-1.4,1.4
		c-1-0.8-2.4-1.2-3.9-1.2c-2.1,0-3.2,0.9-3.2,2.4c0,1.3,0.8,1.9,2.6,2.1l2.3,0.2c2.5,0.2,4.3,1.2,4.3,3.9
		C343,100.2,340.7,101.8,337.1,101.8z"/>
	<path class="st0" d="M346,101.7v-1.8l8.1-10.8h-7.6v-1.9h10.1v1.8l-8.1,10.8h8.1v1.9H346z"/>
	<path class="st0" d="M360.6,83v-2.4h2.4V83H360.6z M360.7,101.7V87.1h2.1v14.5H360.7z"/>
	<path class="st0" d="M377.9,100.6c-0.8,0.8-2,1.3-3.5,1.3c-1.6,0-2.9-0.4-4.1-1.9v8.2h-2.1v-21h2.1v1.7c1.2-1.5,2.5-1.9,4.1-1.9
		c1.5,0,2.8,0.5,3.5,1.3c1.4,1.4,1.8,3.8,1.8,6.2S379.4,99.1,377.9,100.6z M374,88.9c-3.2,0-3.7,2.7-3.7,5.5c0,2.8,0.5,5.5,3.7,5.5
		c3.2,0,3.6-2.7,3.6-5.5C377.6,91.6,377.1,88.9,374,88.9z"/>
	<path class="st0" d="M387.9,101.7c-2.5,0-3.7-1.7-3.7-3.9V80.7h2.1v17c0,1.4,0.5,2.1,1.9,2.1h1.2v1.8H387.9z"/>
	<path class="st0" d="M392.8,83v-2.4h2.4V83H392.8z M392.9,101.7V87.1h2.1v14.5H392.9z"/>
	<path class="st0" d="M409.6,101.7v-8.9c0-2.6-1.4-3.9-3.6-3.9s-3.6,1.3-3.6,3.9v8.9h-2.1V87.1h2.1v1.6c1-1.2,2.4-1.8,4.1-1.8
		c1.6,0,2.8,0.5,3.7,1.4c1,1,1.5,2.4,1.5,4v9.3H409.6z"/>
	<path class="st0" d="M425.2,101.7v-1.4c-1.2,1.2-2.2,1.6-4.2,1.6c-2,0-3.1-0.4-4.1-1.3c-0.7-0.7-1.1-1.8-1.1-2.9
		c0-2.6,1.8-4.2,5-4.2h4.3V92c0-2.1-1-3.2-3.7-3.2c-1.8,0-2.8,0.5-3.7,1.7l-1.4-1.3c1.3-1.7,2.7-2.2,5.1-2.2c3.9,0,5.8,1.7,5.8,4.8
		v9.9H425.2z M417.5,83.9v-2.6h2.1v2.6H417.5z M425.2,95h-4c-2.2,0-3.3,0.9-3.3,2.6c0,1.7,1,2.5,3.4,2.5c1.2,0,2.3-0.1,3.2-1
		c0.5-0.5,0.7-1.3,0.7-2.5V95z M423.8,83.9v-2.6h2.1v2.6H423.8z"/>
	<path class="st0" d="M440.6,89.9c-0.8-0.8-1.4-1.1-2.5-1.1c-2.1,0-3.5,1.7-3.5,3.9v8.9h-2.1V87.1h2.1v1.8c0.8-1.2,2.4-1.9,4.1-1.9
		c1.4,0,2.4,0.3,3.5,1.4L440.6,89.9z"/>
	<path class="st0" d="M445.3,95c0,3.2,1.5,5,4.3,5c1.7,0,2.7-0.5,3.8-1.7l1.4,1.3c-1.5,1.5-2.9,2.2-5.3,2.2c-3.9,0-6.3-2.3-6.3-7.4
		c0-4.7,2.3-7.4,6-7.4c3.8,0,6,2.7,6,7V95H445.3z M452.5,91c-0.6-1.3-1.8-2.2-3.4-2.2s-2.8,0.9-3.4,2.2c-0.4,0.8-0.4,1.2-0.4,2.4
		h7.7C452.9,92.2,452.9,91.7,452.5,91z"/>
	<path class="st0" d="M198.3,137.1v-21h2.2v19h10.7v2H198.3z"/>
	<path class="st0" d="M216.2,130.4c0,3.2,1.5,5,4.3,5c1.7,0,2.7-0.5,3.8-1.7l1.4,1.3c-1.5,1.5-2.9,2.2-5.3,2.2
		c-3.9,0-6.3-2.3-6.3-7.4c0-4.7,2.3-7.4,6-7.4c3.8,0,6,2.7,6,7v0.9H216.2z M223.4,126.4c-0.6-1.3-1.8-2.2-3.4-2.2
		c-1.6,0-2.8,0.9-3.4,2.2c-0.4,0.8-0.4,1.2-0.4,2.4h7.7C223.8,127.6,223.8,127.1,223.4,126.4z"/>
	<path class="st0" d="M238.6,125.3c-0.8-0.8-1.4-1.1-2.5-1.1c-2.1,0-3.5,1.7-3.5,3.9v8.9h-2.1v-14.5h2.1v1.8
		c0.8-1.2,2.4-1.9,4.1-1.9c1.4,0,2.4,0.3,3.5,1.4L238.6,125.3z"/>
	<path class="st0" d="M252.2,137.1v-8.9c0-2.6-1.4-3.9-3.6-3.9s-3.6,1.3-3.6,3.9v8.9h-2.1v-14.5h2.1v1.6c1-1.2,2.4-1.8,4.1-1.8
		c1.6,0,2.8,0.5,3.7,1.4c1,1,1.5,2.4,1.5,4v9.3H252.2z"/>
	<path class="st0" d="M269.3,136c-0.8,0.8-2,1.3-3.5,1.3c-1.6,0-2.9-0.4-4.1-1.9v8.2h-2.1v-21h2.1v1.7c1.2-1.5,2.5-1.9,4.1-1.9
		c1.5,0,2.8,0.5,3.5,1.3c1.4,1.4,1.8,3.8,1.8,6.2C271,132.1,270.7,134.5,269.3,136z M265.3,124.3c-3.2,0-3.7,2.7-3.7,5.5
		c0,2.8,0.5,5.5,3.7,5.5c3.2,0,3.6-2.7,3.6-5.5C268.9,127,268.4,124.3,265.3,124.3z"/>
	<path class="st0" d="M279.2,137.1c-2.5,0-3.7-1.7-3.7-3.9v-17.1h2.1v17c0,1.4,0.5,2.1,1.9,2.1h1.2v1.8H279.2z"/>
	<path class="st0" d="M292.5,137.1v-1.4c-1.2,1.2-2.2,1.6-4.2,1.6c-2,0-3.1-0.4-4.1-1.3c-0.7-0.7-1.1-1.8-1.1-2.9
		c0-2.6,1.8-4.2,5-4.2h4.3v-1.4c0-2.1-1-3.2-3.7-3.2c-1.8,0-2.8,0.5-3.7,1.7l-1.4-1.3c1.3-1.7,2.7-2.2,5.1-2.2
		c3.9,0,5.8,1.7,5.8,4.8v9.9H292.5z M292.5,130.4h-4c-2.2,0-3.3,0.9-3.3,2.6c0,1.7,1,2.5,3.4,2.5c1.2,0,2.3-0.1,3.2-1
		c0.5-0.5,0.7-1.3,0.7-2.5V130.4z"/>
	<path class="st0" d="M303.8,137.1c-2.5,0-3.7-1.7-3.7-3.9v-9h-1.8v-1.6h1.8v-4.5h2.1v4.5h3.1v1.6h-3.1v8.9c0,1.3,0.6,2.1,2,2.1h1.1
		v1.8H303.8z"/>
	<path class="st0" d="M312.1,124.2v12.9H310v-12.9h-1.9v-1.6h1.9v-2.7c0-2.2,1.2-3.9,3.7-3.9h1.5v1.8h-1.1c-1.4,0-1.9,0.8-1.9,2.1
		v2.6h3.1v1.6H312.1z"/>
	<path class="st0" d="M327.7,135.6c-1,1-2.4,1.7-4.2,1.7s-3.2-0.6-4.2-1.7c-1.5-1.5-1.8-3.5-1.8-5.8c0-2.2,0.3-4.3,1.8-5.8
		c1-1,2.4-1.7,4.2-1.7s3.2,0.6,4.2,1.7c1.5,1.5,1.8,3.5,1.8,5.8C329.5,132,329.2,134.1,327.7,135.6z M326.2,125.3
		c-0.7-0.7-1.6-1.1-2.7-1.1s-1.9,0.4-2.6,1.1c-1.1,1.1-1.2,2.8-1.2,4.5c0,1.6,0.1,3.4,1.2,4.5c0.7,0.7,1.6,1.1,2.6,1.1
		s1.9-0.4,2.7-1.1c1.1-1.1,1.2-2.9,1.2-4.5C327.3,128.2,327.3,126.4,326.2,125.3z"/>
	<path class="st0" d="M342.1,125.3c-0.8-0.8-1.4-1.1-2.5-1.1c-2.1,0-3.5,1.7-3.5,3.9v8.9H334v-14.5h2.1v1.8c0.8-1.2,2.4-1.9,4.1-1.9
		c1.4,0,2.4,0.3,3.5,1.4L342.1,125.3z"/>
	<path class="st0" d="M365.1,137.1v-8.9c0-2.6-1.4-3.9-3.6-3.9c-2.1,0-3.6,1.3-3.6,3.6v9.2h-2.1v-8.9c0-2.6-1.4-3.9-3.6-3.9
		s-3.6,1.3-3.6,3.9v8.9h-2.1v-14.5h2.1v1.6c1-1.2,2.5-1.8,4.1-1.8c2,0,3.6,0.8,4.5,2.4c1.1-1.6,2.7-2.4,4.8-2.4
		c1.6,0,2.9,0.5,3.7,1.4c1,1,1.6,2.4,1.6,4v9.3H365.1z"/>
</g>
<path class="st4" d="M77,10.7l-7.3,7.3c6.8,6.8,10.6,15.9,10.6,25.5c0,20-16.2,36.2-36.2,36.2c-9.6,0-18.8-3.8-25.5-10.6l-7.3,7.3
	c7.4,7.4,17.2,12.1,27.7,13.3v26.7H18.4v10.3H70v-10.3H49.4V89.8c23.5-2.6,41.3-22.5,41.3-46.2C90.7,31.3,85.8,19.5,77,10.7
	 M44.2,15.2c-15.7,0-28.4,12.7-28.4,28.4S28.5,72,44.2,72s28.4-12.7,28.4-28.4S59.9,15.2,44.2,15.2 M44.2,25.5
	c10,0,18.1,8.1,18.1,18.1c0,10-8.1,18.1-18.1,18.1s-18.1-8.1-18.1-18.1S34.2,25.5,44.2,25.5z"/>
</svg>
